<svg xmlns="http://www.w3.org/2000/svg" width="278.59" height="278.59" viewBox="0 0 278.59 278.59">
  <path id="comment-alt" d="M243.767,0H34.824A34.856,34.856,0,0,0,0,34.824V191.531a34.856,34.856,0,0,0,34.824,34.824H87.059v45.706a6.511,6.511,0,0,0,6.529,6.529,6.248,6.248,0,0,0,3.863-1.306l67.961-50.93h78.354a34.856,34.856,0,0,0,34.824-34.824V34.824A34.856,34.856,0,0,0,243.767,0Zm8.706,191.531a8.732,8.732,0,0,1-8.706,8.706H156.707l-6.965,5.224-36.565,27.424V200.237H34.824a8.732,8.732,0,0,1-8.706-8.706V34.824a8.732,8.732,0,0,1,8.706-8.706H243.767a8.732,8.732,0,0,1,8.706,8.706Z"/>
</svg>
