<svg id="Icons_Fill_Heart" data-name="Icons/Fill/Heart" xmlns="http://www.w3.org/2000/svg" width="24" height="24" viewBox="0 0 24 24">
  <path id="Shape" d="M4.559.195A4.431,4.431,0,0,1,9.033,1.2c.095.095.182.191.263.288a.5.5,0,0,0,.767,0c.081-.1.168-.193.263-.288A4.431,4.431,0,0,1,14.8.195a5.969,5.969,0,0,1,4.362,4.231,6.8,6.8,0,0,1-2.13,6.607l-5.584,5.586a2.5,2.5,0,0,1-3.534,0L2.328,11.033A6.8,6.8,0,0,1,.2,4.425,5.97,5.97,0,0,1,4.559.195Z" transform="translate(2.321 4.32)" fill="#007bff"/>
</svg>
