<svg id="Outline_Heart" data-name="Outline/Heart" xmlns="http://www.w3.org/2000/svg" width="24" height="24" viewBox="0 0 24 24">
  <path id="Shape" d="M10.182,18.352a2.978,2.978,0,0,1-2.12-.878L2.475,11.887A7.322,7.322,0,0,1,.214,4.8,6.488,6.488,0,0,1,4.938.21,6.644,6.644,0,0,1,6.544,0,4.611,4.611,0,0,1,9.887,1.347c.1.1.2.21.292.32.1-.116.2-.224.293-.32A4.608,4.608,0,0,1,13.816,0a6.648,6.648,0,0,1,1.607.21A6.489,6.489,0,0,1,20.147,4.8a7.321,7.321,0,0,1-2.26,7.09L12.3,17.473A2.981,2.981,0,0,1,10.182,18.352ZM6.543,2h0a4.648,4.648,0,0,0-1.12.15A4.484,4.484,0,0,0,2.147,5.312a5.381,5.381,0,0,0,1.742,5.161L9.476,16.06a1,1,0,0,0,1.412,0l2.772-2.773,2.812-2.813a5.379,5.379,0,0,0,1.741-5.16A4.484,4.484,0,0,0,14.937,2.15,4.653,4.653,0,0,0,13.817,2a2.59,2.59,0,0,0-1.929.762,3.252,3.252,0,0,0-.594.833,2.932,2.932,0,0,0-.126.287c-.009.023-.015.042-.02.055l0,.013,0,.011a1,1,0,0,1-1.919,0l0-.01c0-.013-.013-.037-.025-.069A2.833,2.833,0,0,0,9.067,3.6a3.239,3.239,0,0,0-.594-.833A2.589,2.589,0,0,0,6.544,2Z" transform="translate(1.82 3.82)" fill="#040921"/>
</svg>
